<svg width="160" height="23" viewBox="0 0 160 23" fill="none" xmlns="http://www.w3.org/2000/svg">
<path fill-rule="evenodd" clip-rule="evenodd" d="M26.2268 14.4199C26.2268 9.94535 22.721 6.41992 18.0618 6.41992C13.4252 6.41992 9.91943 9.94535 9.91943 14.4199C9.91943 18.8945 13.4252 22.4199 18.0618 22.4199C22.721 22.4199 26.2268 18.8945 26.2268 14.4199ZM22.3361 14.4198C22.3361 16.8378 20.5493 18.8717 18.0614 18.8717C15.5734 18.8717 13.7866 16.8378 13.7866 14.4198C13.7866 12.0017 15.5734 9.96777 18.0614 9.96777C20.5493 9.96777 22.3361 12.0017 22.3361 14.4198Z" fill="#FBB100"/>
<path fill-rule="evenodd" clip-rule="evenodd" d="M121.356 19.4593H114.842L113.825 22.1034H109.754L116.29 6.64575H119.931L126.445 22.1034H122.397L121.356 19.4593ZM42.7149 22.1028V6.7356H38.8925V15.391L31.4739 6.7356H28.5562V22.1028H32.3786V13.6734L39.7519 22.1028H42.7149ZM56.8277 22.1028V18.7356H49.2282V6.7356H45.4058V22.1028H56.8277ZM62.4606 6.7356V22.1028H58.6382V6.7356H62.4606ZM79.332 22.1028V6.7356H75.5097V15.391L68.0911 6.7356H65.1734V22.1028H68.9958V13.6734L76.3691 22.1028H79.332ZM85.8473 10.0576V12.8599H92.6553V16.1141H85.8473V18.7808H93.6504V22.1028H82.025V6.7356H93.6504V10.0576H85.8473ZM109.392 17.8316C109.392 16.1819 108.442 14.6 106.565 14.1932C107.922 13.7186 108.714 12.2497 108.714 10.826C108.714 8.31752 106.746 6.7356 103.421 6.7356H95.8218V22.1028H103.874C107.334 22.1028 109.392 20.3853 109.392 17.8316ZM99.6441 9.85474V12.996H102.833C104.258 12.996 105.05 12.3406 105.05 11.3463C105.05 10.3745 104.303 9.85474 102.833 9.85474H99.6441ZM103.376 18.9396H99.6441V15.9114H103.444C104.846 15.9114 105.638 16.386 105.638 17.3351C105.638 18.2391 104.937 18.9396 103.376 18.9396ZM118.099 11.0979L120.09 16.2052H116.109L118.099 11.0979ZM142.256 6.7356V22.1028H139.293L131.92 13.6734V22.1028H128.097V6.7356H131.015L138.433 15.391V6.7356H142.256ZM148.769 18.9842L150.963 16.4531L155.26 22.1028H159.92L153.564 13.4701L159.422 6.7356H154.899L148.769 13.7186V6.7356H144.947V22.1028H148.769V18.9842Z" fill="#263238"/>
<g clip-path="url(#clip0_66_5709)">
<path d="M0.558464 8.16234C0.60758 8.73489 0.854219 9.27104 1.25287 9.67186C1.65153 10.0727 2.17529 10.3111 2.72753 10.3432C2.83328 10.3496 2.93928 10.3482 3.04473 10.3389C3.49612 10.3001 3.92542 10.123 4.27833 9.82999C4.63123 9.537 4.8919 9.14127 5.02738 8.69286C5.16285 8.24444 5.16703 7.76348 5.03941 7.31078C4.91178 6.85808 4.65807 6.45399 4.31036 6.14959C3.96265 5.8452 3.53656 5.65418 3.08596 5.60069C2.63537 5.54719 2.18052 5.63363 1.77892 5.84908C1.37732 6.06452 1.04702 6.39928 0.829783 6.81104C0.612542 7.2228 0.518122 7.69305 0.558462 8.16234L0.558464 8.16234Z" fill="#F3D9BA"/>
<path d="M2.7275 10.3424C2.83324 10.3488 2.93924 10.3473 3.04469 10.3381C3.45115 10.3034 3.84058 10.1564 4.17265 9.91231C4.50471 9.66819 4.76735 9.33585 4.93335 8.94968C4.53217 8.56434 4.00939 8.26491 3.75623 8.24553C3.55248 8.44629 3.58346 9.17739 3.59187 9.39632C3.60512 9.7469 3.40205 10.1369 2.7275 10.3424Z" fill="#EACAAC"/>
<path d="M3.72781 8.57745C4.34933 9.8764 6.22797 10.4631 7.86968 9.62547C8.02602 9.59722 8.19484 9.5632 8.37485 9.52349C11.8891 8.74821 19.5917 5.84071 20.9649 4.97024C20.1402 3.44145 17.9085 -0.15639 12.6815 0.847422C6.70536 1.99503 7.4982 9.21669 4.09701 8.12936C4.03916 8.11092 3.97749 8.11035 3.91956 8.12771C3.86163 8.14508 3.80992 8.17964 3.77077 8.22716C3.73161 8.27468 3.7067 8.33311 3.69907 8.39532C3.69145 8.45752 3.70143 8.52081 3.72781 8.57745Z" fill="#FD0404"/>
<path d="M3.72785 8.57791C4.34936 9.87685 6.228 10.4635 7.86971 9.62592C8.02605 9.59767 8.19488 9.56365 8.37488 9.52394C8.42879 9.40279 8.46768 9.27493 8.49064 9.14343C8.14429 8.45288 8.20251 6.86583 8.52295 5.77441C7.80099 7.8053 6.77908 7.92098 6.27759 8.37547C5.86437 8.74996 5.04827 10.1069 3.72785 8.57791Z" fill="#C41B04"/>
<path d="M8.38147 9.05338C8.38471 9.05311 8.38792 9.05258 8.39108 9.05179C8.39932 9.04977 8.40709 9.04606 8.41394 9.04091C8.42078 9.03575 8.42657 9.02923 8.43098 9.02172C8.43538 9.01422 8.43832 9.00588 8.43961 8.99718C8.4409 8.98847 8.44053 8.97958 8.43851 8.971C8.1587 7.77779 8.36999 6.64544 8.58531 5.79226C8.58965 5.77507 8.58723 5.75674 8.57858 5.74131C8.56992 5.72588 8.55575 5.71462 8.53917 5.70999C8.52259 5.70537 8.50497 5.70776 8.49018 5.71665C8.47538 5.72554 8.46464 5.7402 8.46029 5.75739C8.24116 6.62587 8.02631 7.77948 8.31307 9.00197C8.31672 9.01758 8.32563 9.03135 8.33818 9.04079C8.35073 9.05022 8.36609 9.05468 8.38147 9.05338Z" fill="#403838"/>
<path d="M7.80017 10.3189C7.83292 10.6997 7.98049 11.0608 8.22185 11.3506C8.4632 11.6405 8.786 11.8444 9.14419 11.9332C9.38656 12.0008 9.63538 12.0396 9.88582 12.0488L9.88711 12.0486C12.1247 12.1281 14.1608 9.86802 15.1275 9.05668C15.7997 8.4923 16.84 8.01694 17.9704 7.91992C18.6674 7.85414 19.3708 7.95341 20.0277 8.21028C20.249 8.30973 20.4873 8.3607 20.7278 8.35997C20.9683 8.35925 21.2057 8.30685 21.4252 8.20607C21.6446 8.10529 21.8413 7.95831 22.0029 7.77436C22.1645 7.59041 22.2875 7.37346 22.3643 7.13716C22.441 6.90085 22.4697 6.65029 22.4487 6.40122C22.4276 6.15214 22.3573 5.90994 22.242 5.68983C22.1268 5.46971 21.9691 5.27644 21.7789 5.12216C21.5887 4.96788 21.3702 4.85592 21.137 4.79332L21.1369 4.79265C19.969 4.44481 17.0708 4.41597 14.4794 6.03648C12.625 7.19689 11.7199 8.89166 10.0154 8.43087C9.98942 8.42299 9.96351 8.41578 9.93704 8.40929C9.93171 8.40773 9.92576 8.40621 9.91981 8.40471C9.65187 8.3402 9.37348 8.34226 9.10731 8.41074C8.84113 8.47921 8.59471 8.61215 8.3881 8.79874C8.1815 8.98532 8.02056 9.22027 7.91839 9.48444C7.81622 9.74861 7.77572 10.0345 7.80018 10.3189L7.80017 10.3189Z" fill="#FDF2E5"/>
<path d="M9.88717 12.0489C12.1248 12.1284 14.1609 9.86832 15.1276 9.05698C15.7998 8.4926 16.8401 8.01724 17.9704 7.92022C18.6675 7.85444 19.3709 7.95371 20.0278 8.21058C19.1383 7.72431 18.3521 7.27769 17.3782 7.45358C16.7183 7.57287 16.3349 8.14954 15.8571 8.34417C15.2096 8.60794 14.0656 8.87928 13.6132 9.38504C13.243 9.79886 12.2038 11.7201 9.88717 12.0489Z" fill="#EACAAC"/>
</g>
<defs>
<clipPath id="clip0_66_5709">
<rect width="22" height="11" fill="white" transform="matrix(-0.996337 0.0855119 0.0855119 0.996337 21.9194 0)"/>
</clipPath>
</defs>
</svg>

